<svg version="1.2" xmlns="http://www.w3.org/2000/svg" viewBox="0 0 1920 1333" width="1920" height="1333">
	<title>bg-draw-svg</title>
	<defs>
		<clipPath clipPathUnits="userSpaceOnUse" id="cp1">
			<path d="m-1350.56 853.52c82.01-168.97 174.52-451.17 399.93-538.31 505.34-195.6 684.03 684.86 873.3 891.35 193.35 211.03 489.43 133.31 645-66.71 130.89-168.57 231.94-452.39 475.03-542.55 526.05-195.09 618.17 451.16 955.57 671.08 123.49-223.44 159-464.91 82.61-699.94-216.08-664.24-1240.3-1026.07-2287.6-807.91-1026.1 213.58-1693.2 904.3-1517.13 1556.67 207.11-72.03 298.92-310.33 373.29-463.68z"/>
		</clipPath>
		<clipPath clipPathUnits="userSpaceOnUse" id="cp2">
			<path d="m-2.12 0h1920v1499h-1920z"/>
		</clipPath>
		<filter x="-50%" y="-50%" width="200%" height="200%" id="f1"> <feGaussianBlur stdDeviation="234.6"/> </filter>
	</defs>
	<style>
		.s0 { filter: url(#f1);fill: #ffffff } 
		.s1 { filter: url(#f1);fill: #009649 } 
		.s2 { filter: url(#f1);fill: #00b9f2;stroke: #ffffff;stroke-miterlimit:2.6131;stroke-width: .4 } 
	</style>
	<g id="Clip-Path copy 4" clip-path="url(#cp1)">
		<g id="Layer">
			<g id="Clip-Path" clip-path="url(#cp2)">
				<g id="Layer" style="opacity: .5">
					<path id="Layer" fill-rule="evenodd" class="s0" d="m1816.1 1052.3c102.9 374.9-213.7 779.3-707.3 903.2-493.5 124-992.5-77.1-1088.4-454.9-95.6-376.6 222.3-778.4 715.8-902.5 493.5-124 977 79.4 1079.9 454.2z"/>
					<path id="Layer" fill-rule="evenodd" class="s1" d="m1609.7 1538.3c-57.4-100-170.7-236.6-304.5-147.3-129.7 86.7-287.8 607.5-511.6 344.9-88.9-104.5-117.5-247.6-177.5-367-43.1-85.7-138.4-215.9-253.2-136.4-107.5 74.6-142 227-189.7 338.5-16.5 38.5-35.8 84.7-61.5 126 190.4 246.9 585.3 361.4 987 260.4 234.5-58.9 429.2-180.7 558.5-332.5-16.8-29.8-32.1-59.8-47.5-86.6z"/>
					<path id="Layer" fill-rule="evenodd" class="s2" d="m194.7 1217.3c38.7-95.8 82.1-255.6 188.7-305.2 239.1-111.3 324.9 386.9 414.9 503.6 91.8 119.2 232 74.9 305.4-38.5 61.8-95.6 109.2-256.3 224.3-307.7 248.9-111 293.4 254.7 453.5 378.8 58.2-126.6 74.7-263.3 38.2-396.2-103.3-375.8-588.9-579.4-1084.6-454.8-485.8 122.1-800.8 513.8-716.6 882.8 98-41 141.2-176 176.2-262.8z"/>
				</g>
			</g>
		</g>
	</g>
</svg>