<svg version="1.2" xmlns="http://www.w3.org/2000/svg" viewBox="0 0 1920 898" width="1920" height="898">
	<title>Mask group-svg</title>
	<defs>
		<clipPath clipPathUnits="userSpaceOnUse" id="cp1">
			<path d="m-1350.56 479.48c82.01 168.97 174.52 451.17 399.93 538.31 505.34 195.6 684.03-684.86 873.3-891.35 193.35-211.03 489.43-133.31 645 66.71 130.89 168.57 231.94 452.39 475.03 542.55 526.05 195.09 618.17-451.16 955.57-671.08 123.49 223.44 159 464.91 82.61 699.94-216.08 664.24-1240.3 1026.07-2287.6 807.91-1026.1-213.58-1693.2-904.3-1517.13-1556.67 207.11 72.03 298.92 310.33 373.29 463.68z"/>
		</clipPath>
		<clipPath clipPathUnits="userSpaceOnUse" id="cp2">
			<path d="m1920 898h-1920v-1499h1920z"/>
		</clipPath>
		<filter x="-50%" y="-50%" width="200%" height="200%" id="f1"> <feGaussianBlur stdDeviation="245"/> </filter>
	</defs>
	<style>
		.s0 { filter: url(#f1);fill: #ffffff } 
		.s1 { filter: url(#f1);fill: #009649 } 
		.s2 { filter: url(#f1);fill: #00b9f2;stroke: #ffffff;stroke-miterlimit:2.6131;stroke-width: .4 } 
	</style>
	<g id="Clip-Path" clip-path="url(#cp1)">
		<g id="Layer">
			<g id="Clip-Path" clip-path="url(#cp2)">
				<g id="Layer" style="opacity: .5">
					<path id="Layer" fill-rule="evenodd" class="s0" d="m1898.3 382.6c107.4-391.4-223.2-813.6-738.6-943-515.3-129.5-1036.3 80.4-1136.5 475-99.7 393.2 232.2 812.7 747.5 942.2 515.2 129.5 1020.1-82.8 1127.6-474.2z"/>
					<path id="Layer" fill-rule="evenodd" class="s1" d="m1682.7-124.8c-59.9 104.4-178.2 247-317.9 153.8-135.5-90.5-300.5-634.3-534.2-360.1-92.8 109.1-122.7 258.5-185.3 383.2-45 89.5-144.6 225.4-264.5 142.3-112.2-77.8-148.1-236.9-198-353.3-17.2-40.2-37.4-88.5-64.2-131.6 198.8-257.8 611.1-377.4 1030.5-271.9 244.9 61.4 448.2 188.7 583.2 347.2-17.6 31.1-33.6 62.4-49.6 90.4z"/>
					<path id="Layer" fill-rule="evenodd" class="s2" d="m205.3 210.4c40.3 100 85.7 266.8 197 318.6 249.7 116.2 339.3-404 433.2-525.8 95.9-124.5 242.2-78.2 318.9 40.2 64.4 99.8 114 267.6 234.1 321.2 259.9 115.9 306.4-265.9 473.5-395.5 60.8 132.2 78 275 39.9 413.8-107.8 392.3-614.8 605-1132.4 474.8-507.2-127.4-836.2-536.4-748.2-921.8 102.4 42.8 147.4 183.8 184 274.5z"/>
				</g>
			</g>
		</g>
	</g>
</svg>