<svg width="1920" height="1333" viewBox="0 0 1920 1333" fill="none" xmlns="http://www.w3.org/2000/svg">
<mask id="mask0_3801_10588" style="mask-type:alpha" maskUnits="userSpaceOnUse" x="-1753" y="-304" width="3875" height="1637">
<path fill-rule="evenodd" clip-rule="evenodd" d="M-1350.56 853.517C-1268.55 684.551 -1176.04 402.353 -950.625 315.207C-445.287 119.615 -266.597 1000.07 -77.3317 1206.56C116.017 1417.59 412.101 1339.87 567.666 1139.85C698.556 971.283 799.615 687.465 1042.7 597.297C1568.75 402.209 1660.87 1048.46 1998.27 1268.38C2121.76 1044.94 2157.27 803.468 2080.88 568.44C1864.8 -95.803 840.581 -457.627 -206.718 -239.475C-1232.82 -25.892 -1899.92 664.833 -1723.85 1317.2C-1516.74 1245.17 -1424.93 1006.87 -1350.56 853.517Z" fill="#00B9F2" stroke="white" stroke-width="0.161016" stroke-miterlimit="2.6131"/>
</mask>
<g mask="url(#mask0_3801_10588)">
<g opacity="0.5" clip-path="url(#clip0_3801_10588)" filter="url(#filter0_f_3801_10588)">
<path fill-rule="evenodd" clip-rule="evenodd" d="M1898.26 950.391C2005.69 1341.8 1675.09 1764.01 1159.7 1893.43C644.442 2022.86 123.404 1812.97 23.2354 1418.44C-76.5471 1025.21 255.374 605.654 770.657 476.166C1285.9 346.699 1790.81 559.049 1898.26 950.391Z" fill="white"/>
<path fill-rule="evenodd" clip-rule="evenodd" d="M1682.68 1457.77C1622.76 1353.43 1504.48 1210.79 1364.79 1304.03C1229.31 1394.51 1064.27 1938.35 830.623 1664.11C737.762 1554.99 707.923 1405.61 645.297 1280.89C600.273 1191.41 500.715 1055.5 380.842 1138.57C268.61 1216.37 232.654 1375.54 182.78 1491.93C165.592 1532.14 145.446 1580.38 118.592 1623.54C317.354 1881.27 729.717 2000.87 1149.14 1895.41C1394.04 1833.95 1597.34 1706.7 1732.32 1548.22C1714.73 1517.08 1698.75 1485.84 1682.68 1457.77Z" fill="#009649"/>
<path fill-rule="evenodd" clip-rule="evenodd" d="M205.29 1122.6C245.615 1022.65 290.97 855.758 402.328 803.991C651.972 687.804 741.574 1207.95 835.464 1329.77C931.38 1454.26 1077.7 1407.98 1154.36 1289.59C1218.85 1189.81 1268.44 1021.95 1388.53 968.378C1648.42 852.465 1694.88 1234.3 1862.05 1363.87C1922.81 1231.67 1940.03 1088.92 1901.93 950.111C1794.13 557.792 1287.1 345.149 769.456 475.302C262.289 602.73 -66.6598 1011.73 21.3268 1397.08C123.65 1354.27 168.726 1213.32 205.29 1122.6Z" fill="#00B9F2" stroke="white" stroke-width="0.161016" stroke-miterlimit="2.6131"/>
</g>
</g>
<defs>
<filter id="filter0_f_3801_10588" x="-490" y="-55" width="2900" height="2479" filterUnits="userSpaceOnUse" color-interpolation-filters="sRGB">
<feFlood flood-opacity="0" result="BackgroundImageFix"/>
<feBlend mode="normal" in="SourceGraphic" in2="BackgroundImageFix" result="shape"/>
<feGaussianBlur stdDeviation="245" result="effect1_foregroundBlur_3801_10588"/>
</filter>
<clipPath id="clip0_3801_10588">
<rect width="1920" height="1499" fill="white" transform="translate(0 435)"/>
</clipPath>
</defs>
</svg>
